<?xml version="1.0" standalone="no"?>
<!DOCTYPE svg PUBLIC "-//W3C//DTD SVG 20010904//EN"
 "http://www.w3.org/TR/2001/REC-SVG-20010904/DTD/svg10.dtd">
<svg version="1.0" xmlns="http://www.w3.org/2000/svg"
 width="179.000000pt" height="179.000000pt" viewBox="0 0 179.000000 179.000000"
 preserveAspectRatio="xMidYMid meet">
<metadata>
Created by potrace 1.11, written by Peter Selinger 2001-2013
</metadata>
<g transform="translate(0.000000,179.000000) scale(0.100000,-0.100000)"
fill="#000000" stroke="none">
<path d="M649 1651 c-154 -49 -281 -205 -296 -363 l-6 -66 -56 -11 c-104 -21
-192 -87 -243 -184 -20 -36 -23 -57 -23 -147 0 -97 2 -109 29 -158 28 -49 105
-132 124 -132 4 0 16 18 26 40 9 22 30 47 47 57 26 15 29 23 29 66 0 42 5 54
34 83 l34 34 146 0 c131 0 166 6 137 24 -19 12 -21 69 -3 110 59 132 215 195
344 138 159 -70 208 -265 102 -409 l-16 -23 79 0 c128 0 223 -37 291 -114 17
-20 38 -36 45 -36 8 0 41 14 74 30 75 37 155 120 191 197 24 52 27 69 27 173
0 109 -2 119 -32 182 -41 88 -113 160 -201 201 -61 29 -75 32 -167 32 -55 0
-112 -3 -126 -7 -24 -7 -27 -4 -38 31 -29 98 -146 210 -263 251 -74 26 -209
26 -289 1z"/>
<path d="M778 1070 c-53 -28 -90 -81 -86 -122 3 -28 7 -33 32 -36 24 -3 36 4
66 39 33 39 42 44 80 44 34 0 47 -6 66 -28 35 -40 39 -71 17 -109 -32 -56 -44
-58 -324 -58 -268 0 -279 -2 -279 -45 0 -43 10 -45 297 -45 249 0 277 2 311
19 46 23 67 46 87 94 28 66 13 159 -33 210 -51 57 -163 74 -234 37z"/>
<path d="M271 608 c-6 -15 -5 -30 4 -43 12 -19 26 -20 486 -25 528 -6 515 -4
559 -75 33 -54 36 -102 8 -154 -41 -76 -139 -112 -207 -76 -32 16 -77 65 -86
94 -7 23 -42 33 -68 20 -27 -15 -18 -78 18 -125 46 -61 99 -88 177 -92 118 -7
208 44 254 143 43 92 28 195 -40 272 -75 85 -55 83 -609 83 l-488 0 -8 -22z"/>
<path d="M196 454 c-19 -19 -21 -48 -3 -62 8 -7 94 -12 226 -14 l213 -3 24
-28 c31 -36 31 -71 -1 -102 -32 -33 -70 -32 -105 4 -37 36 -56 44 -81 31 -42
-23 -12 -103 51 -135 38 -20 123 -19 166 1 86 41 115 173 57 253 -11 14 -39
36 -63 49 -42 21 -56 22 -256 22 -180 0 -215 -2 -228 -16z"/>
</g>
</svg>
